BONIIN PRESENT
                                                                                                           Ripper-boniin[BOW]







Storyline: After defeating Von Doom, the Fantastic Four can really enjoy life more. 
All four are now comfortable with their new powers. The Thing and Johnny Storm now get along with each other, and 
Sue Storm is now planning to be Mrs. Fantastic. Galactus, an evil creature in space, has decided that Earth is it's 
new target, and sends the Silver Surfer to destroy it. Reed Richards and his team must now work together to capture 
this surfer, and even must now team up with one individual who they didn't expect to help.


Ioan Gruffudd ... Mr. Fantastic / Reed Richards
Jessica Alba ... Invisible Woman / Susan Storm
Chris Evans ... Human Torch / Johnny Storm
Michael Chiklis ... The Thing / Ben Grimm
Julian McMahon ... Dr. Doom / Victor Von Doom
Kerry Washington ... Alicia Masters
Andre Braugher ... General Hager
Laurence Fishburne ... The Silver Surfer (voice)
Doug Jones ... The Silver Surfer
Beau Garrett ... Captain Frankie Raye
Brian Posehn ... Wedding Minister
Zach Grenier ... Mr. Sherman / Rafke
Dawn Chubai ... Anchorwoman
Chris Gailus ... Anchorman
Kevin McNulty ... Baxter Building Doorman

5.8/10   49,762 votes
Genre: Action | Adventure | Fantasy | Sci-Fi
Language: English
Awards: 2 wins & 13 nominations
IMDB: http://www.imdb.com/title/tt0486576





General
Complete name : Fantastic Four - Rise of the Silver Surfer [2007] [DVDrip] [Dual Audio] [Eng-Hindi].avi
Format : AVI
Format/Info : Audio Video Interleave
Format profile : OpenDML
File size : 736 MiB
Duration : 1h 28mn
Overall bit rate : 1 168 Kbps
Writing application : AVI-Mux GUI 1.17.8, Aug 30 2008 12:36:58

Video
ID : 0
Format : MPEG-4 Visual
Format profile : AdvancedSimple@L5
Format settings, BVOP : Yes
Format settings, QPel : No
Format settings, GMC : No warppoints
Format settings, Matrix : Default (H.263)
Muxing mode : Packed bitstream
Codec ID : XVID
Codec ID/Hint : XviD
Duration : 1h 28mn
Bit rate : 973 Kbps
Width : 640 pixels
Height : 272 pixels
Display aspect ratio : 2.35:1
Frame rate : 25.000 fps
Resolution : 24 bits
Colorimetry : 4:2:0
Scan type : Progressive
Bits/(Pixel*Frame) : 0.224
Stream size : 613 MiB (83%)
Writing library : XviD 1.1.2 (UTC 2006-11-01)

Audio #1
ID : 1
Format : MPEG Audio
Format version : Version 1
Format profile : Layer 3
Format_Settings_Mode : Joint stereo / MS Stereo
Codec ID : 55
Codec ID/Hint : MP3
Duration : 1h 23mn
Bit rate mode : Constant
Bit rate : 32.0 Kbps
Channel(s) : 2 channels
Sampling rate : 48.0 KHz
Resolution : 16 bits
Stream size : 38.3 MiB (5%)
Alignment : Aligned on interleaves
Interleave, duration : 25 ms (0.63 video frame)
Interleave, preload duration : 96 ms
Title : Hindi
Writing library : LAME3.96.1

Audio #2
ID : 2
Format : MPEG Audio
Format version : Version 1
Format profile : Layer 3
Format_Settings_Mode : Joint stereo / MS Stereo
Codec ID : 55
Codec ID/Hint : MP3
Duration : 1h 28mn
Bit rate mode : Variable
Bit rate : 120 Kbps
Nominal bit rate : 122 Kbps
Channel(s) : 2 channels
Sampling rate : 48.0 KHz
Resolution : 16 bits
Stream size : 75.4 MiB (10%)
Alignment : Aligned on interleaves
Interleave, duration : 24 ms (0.60 video frame)
Interleave, preload duration : 70 ms
Writing library : LAME3.96r
Encoding settings : -m j -V 4 -q 3 -lowpass 17.5 --abr 122
